<?xml version="1.0" encoding="UTF-8"?>
<svg version="1.1" xmlns="http://www.w3.org/2000/svg" width="160" height="160">
<path d="M0 0 C0.85507141 -0.00852997 1.71014282 -0.01705994 2.59112549 -0.02584839 C3.52109344 -0.02494202 4.4510614 -0.02403564 5.40921021 -0.02310181 C6.39502075 -0.02981903 7.3808313 -0.03653625 8.39651489 -0.04345703 C11.65747102 -0.06246489 14.91822165 -0.06636263 18.17922974 -0.06851196 C20.4460051 -0.07493786 22.71277962 -0.08166607 24.97955322 -0.08868408 C29.7324923 -0.10066377 34.48535866 -0.10436418 39.23831177 -0.10317993 C45.32708583 -0.10297669 51.41539343 -0.1302818 57.50405693 -0.16472435 C62.18638244 -0.18696727 66.86859523 -0.19101827 71.55096817 -0.18996048 C73.79564141 -0.19232025 76.04031758 -0.20116485 78.28493881 -0.21662521 C81.42565278 -0.23623214 84.56535476 -0.23046748 87.70608521 -0.21841431 C88.6320047 -0.22965332 89.55792419 -0.24089233 90.51190186 -0.25247192 C96.07958685 -0.19820612 99.26524898 0.55592267 103.68704224 4.26742554 C106.42996597 7.16144252 107.13756593 9.17195232 107.18704224 13.14242554 C107.08123861 16.72916848 106.6900908 18.94416098 104.43704224 21.76742554 C100.81019934 25.06455544 98.28472597 26.51263037 93.37408447 26.53485107 C92.51901306 26.54338104 91.66394165 26.55191101 90.78295898 26.56069946 C89.85299103 26.55979309 88.92302307 26.55888672 87.96487427 26.55795288 C86.97906372 26.5646701 85.99325317 26.57138733 84.97756958 26.57830811 C81.71661345 26.59731596 78.45586283 26.60121371 75.19485474 26.60336304 C72.92807938 26.60978894 70.66130485 26.61651714 68.39453125 26.62353516 C63.64159217 26.63551484 58.88872582 26.63921525 54.13577271 26.63803101 C48.04699864 26.63782776 41.95869104 26.66513288 35.87002754 26.69957542 C31.18770203 26.72181835 26.50548924 26.72586934 21.8231163 26.72481155 C19.57844306 26.72717132 17.3337669 26.73601592 15.08914566 26.75147629 C11.94843169 26.77108322 8.80872971 26.76531855 5.66799927 26.75326538 C4.74207977 26.76450439 3.81616028 26.77574341 2.86218262 26.787323 C-2.70550238 26.73305719 -5.89116451 25.97892841 -10.31295776 22.26742554 C-13.0558815 19.37340855 -13.76348146 17.36289876 -13.81295776 13.39242554 C-13.70715414 9.8056826 -13.31600633 7.59069009 -11.06295776 4.76742554 C-7.43611487 1.47029563 -4.9106415 0.0222207 0 0 Z " fill="#F8B300" transform="translate(33.312957763671875,68.73257446289063)"/>
<path d="M0 0 C0.85507141 -0.00852997 1.71014282 -0.01705994 2.59112549 -0.02584839 C3.52109344 -0.02494202 4.4510614 -0.02403564 5.40921021 -0.02310181 C6.39502075 -0.02981903 7.3808313 -0.03653625 8.39651489 -0.04345703 C11.65747102 -0.06246489 14.91822165 -0.06636263 18.17922974 -0.06851196 C20.4460051 -0.07493786 22.71277962 -0.08166607 24.97955322 -0.08868408 C29.7324923 -0.10066377 34.48535866 -0.10436418 39.23831177 -0.10317993 C45.32708583 -0.10297669 51.41539343 -0.1302818 57.50405693 -0.16472435 C62.18638244 -0.18696727 66.86859523 -0.19101827 71.55096817 -0.18996048 C73.79564141 -0.19232025 76.04031758 -0.20116485 78.28493881 -0.21662521 C81.42565278 -0.23623214 84.56535476 -0.23046748 87.70608521 -0.21841431 C88.6320047 -0.22965332 89.55792419 -0.24089233 90.51190186 -0.25247192 C96.07958685 -0.19820612 99.26524898 0.55592267 103.68704224 4.26742554 C107.16178545 7.93357409 107.24669522 10.89881049 107.11672974 15.78695679 C106.41961481 19.81121113 104.64770445 21.5182392 101.68704224 24.26742554 C99.37547396 25.42320967 98.03591283 25.40275355 95.46273804 25.42132568 C94.57675934 25.42992615 93.69078064 25.43852661 92.7779541 25.4473877 C91.80339264 25.45164764 90.82883118 25.45590759 89.82473755 25.46029663 C88.28793839 25.47256287 88.28793839 25.47256287 86.72009277 25.4850769 C83.31845693 25.509956 79.91686289 25.52645355 76.51516724 25.54086304 C75.35503868 25.54618671 74.19491013 25.55151039 72.99962616 25.55699539 C66.8589799 25.58373811 60.71835405 25.60310931 54.57766724 25.61752319 C48.23095886 25.63417216 41.88476964 25.67894952 35.5382576 25.72989464 C30.66207271 25.76353178 25.78601154 25.77509683 20.90972137 25.78075027 C18.57012719 25.78747265 16.23054142 25.8027201 13.89105988 25.82664108 C10.61591664 25.85821778 7.3421802 25.85834003 4.06692505 25.85092163 C2.61722824 25.87552963 2.61722824 25.87552963 1.13824463 25.90063477 C-3.31181115 25.85937829 -6.3572734 25.71301751 -9.89920044 22.85595703 C-13.63174806 18.85314491 -13.71071359 16.1419311 -13.66452026 10.81430054 C-13.08911558 6.64581325 -11.39930314 5.07319406 -8.31295776 2.26742554 C-5.43934066 0.54605467 -3.33488976 0.01509041 0 0 Z " fill="#E3EEFC" transform="translate(33.312957763671875,104.73257446289063)"/>
<path d="M0 0 C0.8859787 -0.00860046 1.7719574 -0.01720093 2.68478394 -0.02606201 C3.6593454 -0.03032196 4.63390686 -0.03458191 5.63800049 -0.03897095 C6.66253326 -0.04714844 7.68706604 -0.05532593 8.74264526 -0.06375122 C12.14428111 -0.08863031 15.54587515 -0.10512787 18.9475708 -0.11953735 C20.10769936 -0.12486103 21.26782791 -0.13018471 22.46311188 -0.13566971 C28.60375814 -0.16241243 34.74438399 -0.18178362 40.8850708 -0.19619751 C47.23177917 -0.21284648 53.5779684 -0.25762384 59.92448044 -0.30856895 C64.80066533 -0.3422061 69.6767265 -0.35377115 74.55301666 -0.35942459 C76.89261085 -0.36614697 79.23219661 -0.38139442 81.57167816 -0.4053154 C84.8468214 -0.4368921 88.12055783 -0.43701435 91.39581299 -0.42959595 C92.36227753 -0.44600128 93.32874207 -0.46240662 94.32449341 -0.47930908 C98.77454919 -0.4380526 101.82001143 -0.29169183 105.36193848 2.56536865 C109.0944861 6.56818077 109.17345163 9.27939459 109.1272583 14.60702515 C108.55185361 18.77551243 106.86204117 20.34813163 103.7756958 23.15390015 C100.9020787 24.87527101 98.79762779 25.40623527 95.46273804 25.42132568 C94.60766663 25.42985565 93.75259521 25.43838562 92.87161255 25.44717407 C91.94164459 25.4462677 91.01167664 25.44536133 90.05352783 25.44442749 C89.06771729 25.45114471 88.08190674 25.45786194 87.06622314 25.46478271 C83.80526701 25.48379057 80.54451639 25.48768832 77.2835083 25.48983765 C75.01673294 25.49626355 72.74995842 25.50299175 70.48318481 25.51000977 C65.73024574 25.52198945 60.97737938 25.52568986 56.22442627 25.52450562 C50.13565221 25.52430237 44.04734461 25.55160749 37.95868111 25.58605003 C33.27635559 25.60829296 28.59414281 25.61234395 23.91176987 25.61128616 C21.66709663 25.61364593 19.42242046 25.62249053 17.17779922 25.6379509 C14.03708526 25.65755783 10.89738328 25.65179316 7.75665283 25.63973999 C6.83073334 25.650979 5.90481384 25.66221802 4.95083618 25.67379761 C-0.61684881 25.6195318 -3.80251094 24.86540302 -8.2243042 21.15390015 C-11.69904741 17.48775159 -11.78395718 14.52251519 -11.6539917 9.6343689 C-10.95687677 5.61011455 -9.18496641 3.90308649 -6.2243042 1.15390015 C-3.91273592 -0.00188399 -2.5731748 0.01857213 0 0 Z " fill="#19C893" transform="translate(31.22430419921875,33.846099853515625)"/>
<path d="M0 0 C7.01070785 -0.12696594 14.02111832 -0.21442112 21.03271484 -0.2746582 C23.41694214 -0.29977409 25.80109265 -0.33387324 28.18505859 -0.37719727 C31.61575279 -0.43797447 35.04542744 -0.46623993 38.4765625 -0.48828125 C39.53928375 -0.51408768 40.602005 -0.5398941 41.69692993 -0.56648254 C49.97457873 -0.56960681 49.97457873 -0.56960681 53.65771484 2.40551758 C57.29653302 6.43613263 57.39001556 9.15606227 57.359375 14.44921875 C56.78039966 18.55868504 55.00085071 20.21349577 52 23 C49.53838983 24.23080509 47.93503007 24.12043977 45.18310547 24.11352539 C44.18221893 24.11344986 43.1813324 24.11337433 42.15011597 24.11329651 C41.06674957 24.10813522 39.98338318 24.10297394 38.8671875 24.09765625 C37.76021515 24.0962413 36.6532428 24.09482635 35.51272583 24.09336853 C31.96679007 24.08775772 28.42091677 24.07520337 24.875 24.0625 C22.47526133 24.05748639 20.07552167 24.05292325 17.67578125 24.04882812 C11.78383275 24.03778478 5.89192084 24.0210361 0 24 C2 22 2 22 4 21.25 C6.26427472 20.09101578 6.26427472 20.09101578 7.25 17.25 C8.29149715 12.73684568 8.67492842 9.56299214 6.8125 5.25 C4.7325148 2.66794941 3.14158949 1.93398606 0 1 C0 0.67 0 0.34 0 0 Z " fill="#FAEABD" transform="translate(83,70)"/>
<path d="M0 0 C0.86374237 -0.00274933 1.72748474 -0.00549866 2.61740112 -0.0083313 C4.02649246 0.00245453 4.02649246 0.00245453 5.46405029 0.01345825 C6.4594986 0.0131662 7.4549469 0.01287415 8.4805603 0.01257324 C11.77039307 0.01396642 15.05999928 0.02952726 18.34979248 0.04519653 C20.6309395 0.0489267 22.91208811 0.05177365 25.1932373 0.05377197 C31.19708683 0.06140811 37.20083959 0.08105654 43.20465088 0.10317993 C49.3311431 0.12363871 55.45765095 0.13277376 61.58416748 0.14285278 C73.60504333 0.16430236 85.62584736 0.19843817 97.64666748 0.24050903 C97.64666748 0.57050903 97.64666748 0.90050903 97.64666748 1.24050903 C72.89666748 1.57050903 48.14666748 1.90050903 22.64666748 2.24050903 C23.96666748 3.56050903 25.28666748 4.88050903 26.64666748 6.24050903 C26.64666748 6.90050903 26.64666748 7.56050903 26.64666748 8.24050903 C27.30666748 8.24050903 27.96666748 8.24050903 28.64666748 8.24050903 C29.2312263 18.17800903 29.2312263 18.17800903 25.64666748 22.24050903 C19.81328846 26.2942131 13.47059834 25.7556397 6.64666748 25.74050903 C5.48393311 25.76886841 4.32119873 25.79722778 3.12322998 25.82644653 C-6.38907647 25.84821382 -6.38907647 25.84821382 -10.10333252 22.83425903 C-13.62314583 18.77669647 -13.75040903 16.03666639 -13.70489502 10.78738403 C-13.12949033 6.61889675 -11.43967789 5.04627755 -8.35333252 2.24050903 C-5.4602916 0.5026391 -3.35945669 -0.00827452 0 0 Z " fill="#055EE1" transform="translate(33.35333251953125,104.75949096679688)"/>
<path d="M0 0 C19.14 0 38.28 0 58 0 C58 0.33 58 0.66 58 1 C73.18 1.33 88.36 1.66 104 2 C104 2.33 104 2.66 104 3 C90.73539664 3.023131 77.47079805 3.04091897 64.20617867 3.05181217 C58.04743871 3.05703933 51.88871251 3.06413398 45.72998047 3.07543945 C39.79075866 3.08627422 33.85155011 3.0922781 27.91231918 3.09487724 C25.64202541 3.09673042 23.3717324 3.100349 21.10144424 3.10573006 C17.93105732 3.11294828 14.7607258 3.11399061 11.59033203 3.11352539 C10.64374725 3.11712067 9.69716248 3.12071594 8.72189331 3.12442017 C7.86090027 3.1230455 6.99990723 3.12167084 6.11282349 3.12025452 C4.98731425 3.12163721 4.98731425 3.12163721 3.83906746 3.12304783 C2 3 2 3 0 2 C0 1.34 0 0.68 0 0 Z " fill="#8E6E0D" transform="translate(27,92)"/>
<path d="M0 0 C0.86099304 -0.00137466 1.72198608 -0.00274933 2.60906982 -0.00416565 C3.5556546 -0.00057037 4.50223938 0.0030249 5.47750854 0.00672913 C6.47266479 0.0065831 7.46782104 0.00643707 8.49313354 0.00628662 C11.79377395 0.0069852 15.09435843 0.01477508 18.39498901 0.02259827 C20.67899545 0.02446264 22.96300229 0.02588645 25.24700928 0.02688599 C31.26729429 0.03070965 37.2875553 0.04053866 43.30783081 0.05158997 C49.44755732 0.06180733 55.5872877 0.06638431 61.72702026 0.07142639 C73.78041625 0.08216104 85.83379439 0.09923566 97.88717651 0.12025452 C97.88717651 0.45025452 97.88717651 0.78025452 97.88717651 1.12025452 C82.70717651 1.45025452 67.52717651 1.78025452 51.88717651 2.12025452 C51.88717651 2.45025452 51.88717651 2.78025452 51.88717651 3.12025452 C32.74717651 3.12025452 13.60717651 3.12025452 -6.11282349 3.12025452 C-6.11282349 2.46025452 -6.11282349 1.80025452 -6.11282349 1.12025452 C-3.81890739 -0.02670353 -2.54945199 -0.003132 0 0 Z " fill="#8E6E0D" transform="translate(33.112823486328125,68.87974548339844)"/>
</svg>
